<?xml version="1.0" encoding="UTF-8"?>
<svg xmlns="http://www.w3.org/2000/svg" xmlns:xlink="http://www.w3.org/1999/xlink" width="301.001mm" height="257.000mm" viewBox="49.499557 -328.500122 301.001404 257.000244">
    <path transform="matrix(1,0,0,-1,49.499863,-328.500122)" style="stroke:#0000ff;stroke-width:0.05mm;fill:none" d="M150.700668,-138.685516L152.985718,-138.94725C158.974213,-140.232193,163.000183,-145.864639,162.277298,-151.94664C161.906845,-155.070572,160.310532,-157.919388,157.839539,-159.866272C155.368546,-161.813171,152.225327,-162.698654,149.101425,-162.327896C143.019577,-161.604279,138.48851,-156.369476,138.644424,-150.246719C138.80835,-143.736923,144.189713,-138.576492,150.700668,-138.685516z"/>
    <path transform="matrix(1,0,0,-1,49.499863,-328.500122)" style="stroke:#0000ff;stroke-width:0.05mm;fill:none" d="M139.850006,-161.200958L138.410034,-159.532486C133.795883,-153.319611,134.63765,-144.621674,140.357605,-139.408966C146.105179,-134.171326,154.895538,-134.171326,160.643112,-139.408966C166.363052,-144.621704,167.204865,-153.319626,162.590683,-159.532486L161.150696,-161.200958"/>
    <path transform="matrix(1,0,0,-1,49.499863,-328.500122)" style="stroke:#0000ff;stroke-width:0.05mm;fill:none" d="M169.536804,-169.589676L170.832443,-168.198715C180.433319,-157.132141,179.428391,-140.42131,168.570526,-130.585037C157.742767,-120.77652,141.067398,-121.396721,130.998154,-131.982452C120.927353,-142.569534,121.133987,-159.25528,131.463928,-169.589676"/>
    <path transform="matrix(1,0,0,-1,49.499863,-328.500122)" style="stroke:#0000ff;stroke-width:0.05mm;fill:none" d="M129.199677,-171.854675L127.698586,-170.238937C117.005203,-157.847946,118.155144,-139.187469,130.289063,-128.203232C142.42157,-117.220863,161.103622,-117.936455,172.36055,-129.814667C183.592468,-141.666077,183.344376,-160.306335,171.801056,-171.854675"/>
    <path transform="matrix(1,0,0,-1,49.499863,-328.500122)" style="stroke:#0000ff;stroke-width:0.05mm;fill:none" d="M180.187149,-180.243393L182.298798,-177.968857C197.167023,-160.715363,195.576553,-134.756042,178.713287,-119.446632C161.851944,-104.139908,135.860809,-105.070343,120.137108,-121.543556C104.384155,-138.047089,104.684464,-164.107285,120.813545,-180.243393"/>
    <path transform="matrix(1,0,0,-1,49.499863,-328.500122)" style="stroke:#0000ff;stroke-width:0.05mm;fill:none" d="M118.549294,-182.508347L116.236435,-180.013657C100.255569,-161.417908,102.010712,-133.472992,120.19265,-117.022865C138.372513,-100.575592,166.352386,-101.629745,183.243149,-119.398315C200.136566,-137.169144,199.785309,-165.166885,182.451401,-182.508347"/>
    <path transform="matrix(1,0,0,-1,49.499863,-328.500122)" style="stroke:#0000ff;stroke-width:0.05mm;fill:none" d="M190.837509,-190.897064L193.695602,-187.819412C213.917847,-164.367081,211.749847,-129.067566,188.809677,-108.266212C165.872116,-87.468452,130.530365,-88.770569,109.185425,-111.19986C87.837173,-133.63205,88.271042,-168.995407,110.163193,-190.897064"/>
    <path transform="matrix(1,0,0,-1,49.499863,-328.500122)" style="stroke:#0000ff;stroke-width:0.05mm;fill:none" d="M107.898941,-193.162003L104.831367,-189.854645C83.536636,-165.096207,85.82991,-127.883003,110.003494,-105.926529C134.20311,-83.947723,171.516632,-85.2836,194.08255,-108.936722C216.678864,-132.621063,216.243469,-170.010269,193.101761,-193.162003"/>
    <path transform="matrix(1,0,0,-1,49.499863,-328.500122)" style="stroke:#0000ff;stroke-width:0.05mm;fill:none" d="M207.358124,-207.422867L209.446518,-205.254105C239.128143,-173.249222,237.874039,-123.414345,206.620193,-92.94297C175.370544,-62.47612,125.520309,-62.507217,94.308693,-93.013062C63.120773,-123.496201,61.899094,-173.277863,91.554199,-205.254105L93.642586,-207.422867"/>
    <path transform="matrix(1,0,0,-1,49.499863,-328.500122)" style="stroke:#0000ff;stroke-width:0.05mm;fill:none" d="M91.378334,-209.687805L89.225258,-207.452606C58.364029,-174.197525,59.635071,-122.404152,92.090401,-90.702896C124.569168,-58.979187,176.431564,-58.979202,208.910309,-90.702896C241.393433,-122.43132,242.634796,-174.279282,211.707291,-207.52594L209.622375,-209.687805"/>
    <path transform="matrix(1,0,0,-1,49.499863,-328.500122)" style="stroke:#0000ff;stroke-width:0.05mm;fill:none" d="M223.878754,-223.948669L226.529892,-221.197235C264.861542,-179.916946,263.283173,-115.600998,222.972778,-76.250671C182.667755,-36.906181,118.332939,-36.906197,78.027962,-76.250671C37.717506,-115.601059,36.139168,-179.916992,74.470848,-221.197235L77.121971,-223.948669"/>
    <path transform="matrix(1,0,0,-1,49.499863,-328.500122)" style="stroke:#0000ff;stroke-width:0.05mm;fill:none" d="M74.857719,-226.213623L72.124763,-223.377304C32.610306,-180.823196,34.237396,-114.522675,75.791672,-73.958084C117.340347,-33.399544,183.660339,-33.399529,225.209061,-73.958084C266.763458,-114.52256,268.390594,-180.823212,228.875946,-223.377304L226.143005,-226.213623"/>
    <path transform="matrix(1,0,0,-1,49.499863,-328.500122)" style="stroke:#0000ff;stroke-width:0.05mm;fill:none" d="M240.399368,-240.474472L243.681641,-237.066681C290.623535,-186.473846,288.658569,-107.678299,239.253387,-59.488152C189.854889,-11.30513,111.035614,-11.336319,61.675278,-59.558453C12.336304,-107.76049,10.403931,-186.502533,57.319073,-237.066681L60.601334,-240.474472"/>
    <path transform="matrix(1,0,0,-1,49.499863,-328.500122)" style="stroke:#0000ff;stroke-width:0.05mm;fill:none" d="M58.337086,-242.739426L55.007275,-239.28363C6.862518,-187.435654,8.84494,-106.654633,59.475002,-57.230698C110.098083,-7.814041,190.902603,-7.814041,241.525711,-57.230698C292.155579,-106.654732,294.138,-187.435516,245.993423,-239.28363L242.66362,-242.739426"/>
    <path transform="matrix(1,0,0,-1,49.499863,-328.500122)" style="stroke:#0000ff;stroke-width:0.05mm;fill:none" d="M256.919983,-257.000244L260.764893,-253.009888C316.356873,-193.141602,314.067688,-99.865082,255.606033,-42.795959C197.152313,14.264755,103.848473,14.264786,45.394672,-42.795959C-13.066956,-99.865257,-15.356018,-193.141724,40.235825,-253.009888L44.080723,-257.000244"/>
    <path transform="matrix(1,0,0,-1,49.499863,-328.500122)" style="stroke:#0000ff;stroke-width:0.05mm;fill:none" d="M210.457718,-144.640137L300.275757,-135.791061"/>
    <path transform="matrix(1,0,0,-1,49.499863,-328.500122)" style="stroke:#0000ff;stroke-width:0.05mm;fill:none" d="M299.631287,-130.28653L279.653198,-133.000732"/>
    <path transform="matrix(1,0,0,-1,49.499863,-328.500122)" style="stroke:#0000ff;stroke-width:0.05mm;fill:none" d="M280.593719,-142.552322L300.717224,-141.315613"/>
    <path transform="matrix(1,0,0,-1,49.499863,-328.500122)" style="stroke:#0000ff;stroke-width:0.05mm;fill:none" d="M300.955139,-146.852661L257.442993,-147.921143"/>
    <path transform="matrix(1,0,0,-1,49.499863,-328.500122)" style="stroke:#0000ff;stroke-width:0.05mm;fill:none" d="M256.670746,-163.646225L299.868591,-168.975845"/>
    <path transform="matrix(1,0,0,-1,49.499863,-328.500122)" style="stroke:#0000ff;stroke-width:0.05mm;fill:none" d="M299.089325,-174.462921L279.183746,-171.259079"/>
    <path transform="matrix(1,0,0,-1,49.499863,-328.500122)" style="stroke:#0000ff;stroke-width:0.05mm;fill:none" d="M271.520477,-198.959381L290.240601,-206.448074"/>
    <path transform="matrix(1,0,0,-1,49.499863,-328.500122)" style="stroke:#0000ff;stroke-width:0.05mm;fill:none" d="M292.20282,-201.265121L229.223953,-178.723862"/>
    <path transform="matrix(1,0,0,-1,49.499863,-328.500122)" style="stroke:#0000ff;stroke-width:0.05mm;fill:none" d="M253.600159,-179.087784L295.548737,-190.70015"/>
    <path transform="matrix(1,0,0,-1,49.499863,-328.500122)" style="stroke:#0000ff;stroke-width:0.05mm;fill:none" d="M293.972992,-196.013458L274.752899,-189.922638"/>
    <path transform="matrix(1,0,0,-1,49.499863,-328.500122)" style="stroke:#0000ff;stroke-width:0.05mm;fill:none" d="M277.31192,-180.672501L296.927917,-185.332428"/>
    <path transform="matrix(1,0,0,-1,49.499863,-328.500122)" style="stroke:#0000ff;stroke-width:0.05mm;fill:none" d="M298.108643,-179.917603L194.817734,-159.365295"/>
    <path transform="matrix(1,0,0,-1,49.499863,-328.500122)" style="stroke:#0000ff;stroke-width:0.05mm;fill:none" d="M203.633865,-178.95665L283.229584,-221.514771"/>
    <path transform="matrix(1,0,0,-1,49.499863,-328.500122)" style="stroke:#0000ff;stroke-width:0.05mm;fill:none" d="M280.528381,-226.353592L263.109283,-216.198288"/>
    <path transform="matrix(1,0,0,-1,49.499863,-328.500122)" style="stroke:#0000ff;stroke-width:0.05mm;fill:none" d="M267.632233,-207.73378L285.750946,-216.579727"/>
    <path transform="matrix(1,0,0,-1,49.499863,-328.500122)" style="stroke:#0000ff;stroke-width:0.05mm;fill:none" d="M288.08902,-211.555237L248.297791,-193.911499"/>
    <path transform="matrix(1,0,0,-1,49.499863,-328.500122)" style="stroke:#0000ff;stroke-width:0.05mm;fill:none" d="M240.878448,-207.796478L277.650909,-231.089722"/>
    <path transform="matrix(1,0,0,-1,49.499863,-328.500122)" style="stroke:#0000ff;stroke-width:0.05mm;fill:none" d="M257.976105,-224.307037L274.601135,-235.716644"/>
    <path transform="matrix(1,0,0,-1,49.499863,-328.500122)" style="stroke:#0000ff;stroke-width:0.05mm;fill:none" d="M271.383179,-240.22818L217.65744,-200.369995"/>
    <path transform="matrix(1,0,0,-1,49.499863,-328.500122)" style="stroke:#0000ff;stroke-width:0.05mm;fill:none" d="M231.502686,-220.44223L264.460358,-248.880646"/>
    <path transform="matrix(1,0,0,-1,49.499863,-328.500122)" style="stroke:#0000ff;stroke-width:0.05mm;fill:none" d="M268.001373,-244.618164L252.260513,-232.016068"/>
    <path transform="matrix(1,0,0,-1,49.499863,-328.500122)" style="stroke:#0000ff;stroke-width:0.05mm;fill:none" d="M245.993423,-239.28363L260.764893,-253.009888"/>
    <path transform="matrix(1,0,0,-1,49.499863,-328.500122)" style="stroke:#0000ff;stroke-width:0.05mm;fill:none" d="M256.919983,-257.000244L158.886444,-158.935974"/>
    <path transform="matrix(1,0,0,-1,49.499863,-328.500122)" style="stroke:#0000ff;stroke-width:0.05mm;fill:none" d="M142.114258,-158.935974L44.080723,-257.000244"/>
    <path transform="matrix(1,0,0,-1,49.499863,-328.500122)" style="stroke:#0000ff;stroke-width:0.05mm;fill:none" d="M40.235825,-253.009888L55.007275,-239.28363"/>
    <path transform="matrix(1,0,0,-1,49.499863,-328.500122)" style="stroke:#0000ff;stroke-width:0.05mm;fill:none" d="M48.740219,-232.016068L32.99934,-244.618164"/>
    <path transform="matrix(1,0,0,-1,49.499863,-328.500122)" style="stroke:#0000ff;stroke-width:0.05mm;fill:none" d="M36.540363,-248.880646L69.498055,-220.44223"/>
    <path transform="matrix(1,0,0,-1,49.499863,-328.500122)" style="stroke:#0000ff;stroke-width:0.05mm;fill:none" d="M60.12228,-207.796478L23.349798,-231.089722"/>
    <path transform="matrix(1,0,0,-1,49.499863,-328.500122)" style="stroke:#0000ff;stroke-width:0.05mm;fill:none" d="M20.472349,-226.353592L37.891403,-216.198288"/>
    <path transform="matrix(1,0,0,-1,49.499863,-328.500122)" style="stroke:#0000ff;stroke-width:0.05mm;fill:none" d="M43.024586,-224.307037L26.399597,-235.716644"/>
    <path transform="matrix(1,0,0,-1,49.499863,-328.500122)" style="stroke:#0000ff;stroke-width:0.05mm;fill:none" d="M29.617565,-240.22818L83.343254,-200.369995"/>
    <path transform="matrix(1,0,0,-1,49.499863,-328.500122)" style="stroke:#0000ff;stroke-width:0.05mm;fill:none" d="M97.366837,-178.95665L17.771111,-221.514771"/>
    <path transform="matrix(1,0,0,-1,49.499863,-328.500122)" style="stroke:#0000ff;stroke-width:0.05mm;fill:none" d="M15.249764,-216.579727L33.368458,-207.73378"/>
    <path transform="matrix(1,0,0,-1,49.499863,-328.500122)" style="stroke:#0000ff;stroke-width:0.05mm;fill:none" d="M29.480247,-198.959381L10.760101,-206.448074"/>
    <path transform="matrix(1,0,0,-1,49.499863,-328.500122)" style="stroke:#0000ff;stroke-width:0.05mm;fill:none" d="M12.911694,-211.555237L52.702911,-193.911499"/>
    <path transform="matrix(1,0,0,-1,49.499863,-328.500122)" style="stroke:#0000ff;stroke-width:0.05mm;fill:none" d="M71.776749,-178.723862L8.797899,-201.265121"/>
    <path transform="matrix(1,0,0,-1,49.499863,-328.500122)" style="stroke:#0000ff;stroke-width:0.05mm;fill:none" d="M7.027704,-196.013458L26.247858,-189.922638"/>
    <path transform="matrix(1,0,0,-1,49.499863,-328.500122)" style="stroke:#0000ff;stroke-width:0.05mm;fill:none" d="M23.688784,-180.672501L4.072811,-185.332428"/>
    <path transform="matrix(1,0,0,-1,49.499863,-328.500122)" style="stroke:#0000ff;stroke-width:0.05mm;fill:none" d="M5.451978,-190.70015L47.400558,-179.087784"/>
    <path transform="matrix(1,0,0,-1,49.499863,-328.500122)" style="stroke:#0000ff;stroke-width:0.05mm;fill:none" d="M44.330013,-163.646225L1.132099,-168.975845"/>
    <path transform="matrix(1,0,0,-1,49.499863,-328.500122)" style="stroke:#0000ff;stroke-width:0.05mm;fill:none" d="M0.011615,-152.394714L20.171621,-152.147232"/>
    <path transform="matrix(1,0,0,-1,49.499863,-328.500122)" style="stroke:#0000ff;stroke-width:0.05mm;fill:none" d="M22.987797,-123.544235L3.263503,-119.367203"/>
    <path transform="matrix(1,0,0,-1,49.499863,-328.500122)" style="stroke:#0000ff;stroke-width:0.05mm;fill:none" d="M2.215991,-124.809441L45.100426,-132.252914"/>
    <path transform="matrix(1,0,0,-1,49.499863,-328.500122)" style="stroke:#0000ff;stroke-width:0.05mm;fill:none" d="M48.924713,-116.98069L7.596267,-103.323341"/>
    <path transform="matrix(1,0,0,-1,49.499863,-328.500122)" style="stroke:#0000ff;stroke-width:0.05mm;fill:none" d="M9.430756,-98.093773L28.328966,-105.120659"/>
    <path transform="matrix(1,0,0,-1,49.499863,-328.500122)" style="stroke:#0000ff;stroke-width:0.05mm;fill:none" d="M25.319277,-114.234024L5.95548,-108.61689"/>
    <path transform="matrix(1,0,0,-1,49.499863,-328.500122)" style="stroke:#0000ff;stroke-width:0.05mm;fill:none" d="M4.510564,-113.96727L69.394897,-130.225037"/>
    <path transform="matrix(1,0,0,-1,49.499863,-328.500122)" style="stroke:#0000ff;stroke-width:0.05mm;fill:none" d="M90.542984,-144.640137L0.724958,-135.791061"/>
    <path transform="matrix(1,0,0,-1,49.499863,-328.500122)" style="stroke:#0000ff;stroke-width:0.05mm;fill:none" d="M1.36943,-130.28653L21.347538,-133.000732"/>
    <path transform="matrix(1,0,0,-1,49.499863,-328.500122)" style="stroke:#0000ff;stroke-width:0.05mm;fill:none" d="M20.407049,-142.552322L0.283475,-141.315613"/>
    <path transform="matrix(1,0,0,-1,49.499863,-328.500122)" style="stroke:#0000ff;stroke-width:0.05mm;fill:none" d="M0.045588,-146.852661L43.557907,-147.921143"/>
    <path transform="matrix(1,0,0,-1,49.499863,-328.500122)" style="stroke:#0000ff;stroke-width:0.05mm;fill:none" d="M66.989914,-154.651169L0.181557,-157.934265"/>
    <path transform="matrix(1,0,0,-1,49.499863,-328.500122)" style="stroke:#0000ff;stroke-width:0.05mm;fill:none" d="M0.555228,-163.463806L20.642344,-161.733444"/>
    <path transform="matrix(1,0,0,-1,49.499863,-328.500122)" style="stroke:#0000ff;stroke-width:0.05mm;fill:none" d="M21.816961,-171.259079L1.911403,-174.462921"/>
    <path transform="matrix(1,0,0,-1,49.499863,-328.500122)" style="stroke:#0000ff;stroke-width:0.05mm;fill:none" d="M2.892081,-179.917603L106.182991,-159.365295"/>
    <path transform="matrix(1,0,0,-1,49.499863,-328.500122)" style="stroke:#0000ff;stroke-width:0.05mm;fill:none" d="M122.669678,-139.015793L11.456407,-92.935318"/>
    <path transform="matrix(1,0,0,-1,49.499863,-328.500122)" style="stroke:#0000ff;stroke-width:0.05mm;fill:none" d="M13.670492,-87.854958L32.000748,-96.253441"/>
    <path transform="matrix(1,0,0,-1,49.499863,-328.500122)" style="stroke:#0000ff;stroke-width:0.05mm;fill:none" d="M36.314674,-87.680435L18.651724,-77.955833"/>
    <path transform="matrix(1,0,0,-1,49.499863,-328.500122)" style="stroke:#0000ff;stroke-width:0.05mm;fill:none" d="M16.070024,-82.859512L54.947823,-102.435081"/>
    <path transform="matrix(1,0,0,-1,49.499863,-328.500122)" style="stroke:#0000ff;stroke-width:0.05mm;fill:none" d="M78.784691,-107.549057L21.412121,-73.150497"/>
    <path transform="matrix(1,0,0,-1,49.499863,-328.500122)" style="stroke:#0000ff;stroke-width:0.05mm;fill:none" d="M24.347435,-68.450066L41.247379,-79.448135"/>
    <path transform="matrix(1,0,0,-1,49.499863,-328.500122)" style="stroke:#0000ff;stroke-width:0.05mm;fill:none" d="M46.772144,-71.601089L30.726831,-59.389225"/>
    <path transform="matrix(1,0,0,-1,49.499863,-328.500122)" style="stroke:#0000ff;stroke-width:0.05mm;fill:none" d="M27.453777,-63.860924L63.039337,-88.930962"/>
    <path transform="matrix(1,0,0,-1,49.499863,-328.500122)" style="stroke:#0000ff;stroke-width:0.05mm;fill:none" d="M73.024132,-76.760651L41.501114,-46.738834"/>
    <path transform="matrix(1,0,0,-1,49.499863,-328.500122)" style="stroke:#0000ff;stroke-width:0.05mm;fill:none" d="M45.394672,-42.795959L59.475002,-57.230698"/>
    <path transform="matrix(1,0,0,-1,49.499863,-328.500122)" style="stroke:#0000ff;stroke-width:0.05mm;fill:none" d="M52.859016,-64.181885L37.755276,-50.822384"/>
    <path transform="matrix(1,0,0,-1,49.499863,-328.500122)" style="stroke:#0000ff;stroke-width:0.05mm;fill:none" d="M34.162209,-55.041088L103.928413,-112.314682"/>
    <path transform="matrix(1,0,0,-1,49.499863,-328.500122)" style="stroke:#0000ff;stroke-width:0.05mm;fill:none" d="M125.396576,-112.965027L66.886986,-25.371798"/>
    <path transform="matrix(1,0,0,-1,49.499863,-328.500122)" style="stroke:#0000ff;stroke-width:0.05mm;fill:none" d="M71.549553,-22.378063L82.126114,-39.548092"/>
    <path transform="matrix(1,0,0,-1,49.499863,-328.500122)" style="stroke:#0000ff;stroke-width:0.05mm;fill:none" d="M90.474411,-34.817371L81.189255,-16.915527"/>
    <path transform="matrix(1,0,0,-1,49.499863,-328.500122)" style="stroke:#0000ff;stroke-width:0.05mm;fill:none" d="M76.319145,-19.558027L97.772644,-57.440674"/>
    <path transform="matrix(1,0,0,-1,49.499863,-328.500122)" style="stroke:#0000ff;stroke-width:0.05mm;fill:none" d="M84.686066,-66.187592L57.907928,-31.863878"/>
    <path transform="matrix(1,0,0,-1,49.499863,-328.500122)" style="stroke:#0000ff;stroke-width:0.05mm;fill:none" d="M62.337715,-28.535156L74.148346,-44.880344"/>
    <path transform="matrix(1,0,0,-1,49.499863,-328.500122)" style="stroke:#0000ff;stroke-width:0.05mm;fill:none" d="M66.584282,-50.785213L53.603661,-35.353439"/>
    <path transform="matrix(1,0,0,-1,49.499863,-328.500122)" style="stroke:#0000ff;stroke-width:0.05mm;fill:none" d="M49.430679,-38.999107L94.350533,-88.576073"/>
    <path transform="matrix(1,0,0,-1,49.499863,-328.500122)" style="stroke:#0000ff;stroke-width:0.05mm;fill:none" d="M114.751968,-74.93998L86.15329,-14.454135"/>
    <path transform="matrix(1,0,0,-1,49.499863,-328.500122)" style="stroke:#0000ff;stroke-width:0.05mm;fill:none" d="M91.204521,-12.177183L99.14801,-30.713789"/>
    <path transform="matrix(1,0,0,-1,49.499863,-328.500122)" style="stroke:#0000ff;stroke-width:0.05mm;fill:none" d="M108.099892,-27.259571L101.541138,-8.188669"/>
    <path transform="matrix(1,0,0,-1,49.499863,-328.500122)" style="stroke:#0000ff;stroke-width:0.05mm;fill:none" d="M96.336121,-10.087743L112.000648,-50.709225"/>
    <path transform="matrix(1,0,0,-1,49.499863,-328.500122)" style="stroke:#0000ff;stroke-width:0.05mm;fill:none" d="M127.06205,-46.138969L117.525597,-3.657971"/>
    <path transform="matrix(1,0,0,-1,49.499863,-328.500122)" style="stroke:#0000ff;stroke-width:0.05mm;fill:none" d="M136.134171,-20.962252L133.911896,-0.917284"/>
    <path transform="matrix(1,0,0,-1,49.499863,-328.500122)" style="stroke:#0000ff;stroke-width:0.05mm;fill:none" d="M139.428879,-0.407908L142.630798,-43.828815"/>
    <path transform="matrix(1,0,0,-1,49.499863,-328.500122)" style="stroke:#0000ff;stroke-width:0.05mm;fill:none" d="M138.23204,-67.815147L128.417404,-1.629437"/>
    <path transform="matrix(1,0,0,-1,49.499863,-328.500122)" style="stroke:#0000ff;stroke-width:0.05mm;fill:none" d="M122.952866,-2.543413L126.643211,-22.370602"/>
    <path transform="matrix(1,0,0,-1,49.499863,-328.500122)" style="stroke:#0000ff;stroke-width:0.05mm;fill:none" d="M117.28154,-24.473484L112.143044,-4.971601"/>
    <path transform="matrix(1,0,0,-1,49.499863,-328.500122)" style="stroke:#0000ff;stroke-width:0.05mm;fill:none" d="M106.812485,-6.482503L133.011444,-92.875954"/>
    <path transform="matrix(1,0,0,-1,49.499863,-328.500122)" style="stroke:#0000ff;stroke-width:0.05mm;fill:none" d="M167.989258,-92.875954L194.188217,-6.482503"/>
    <path transform="matrix(1,0,0,-1,49.499863,-328.500122)" style="stroke:#0000ff;stroke-width:0.05mm;fill:none" d="M188.857666,-4.971601L183.719193,-24.473431"/>
    <path transform="matrix(1,0,0,-1,49.499863,-328.500122)" style="stroke:#0000ff;stroke-width:0.05mm;fill:none" d="M192.900818,-27.259571L199.459595,-8.188669"/>
    <path transform="matrix(1,0,0,-1,49.499863,-328.500122)" style="stroke:#0000ff;stroke-width:0.05mm;fill:none" d="M204.664581,-10.087743L189.000092,-50.709225"/>
    <path transform="matrix(1,0,0,-1,49.499863,-328.500122)" style="stroke:#0000ff;stroke-width:0.05mm;fill:none" d="M203.228058,-57.440674L224.68158,-19.558027"/>
    <path transform="matrix(1,0,0,-1,49.499863,-328.500122)" style="stroke:#0000ff;stroke-width:0.05mm;fill:none" d="M219.811447,-16.915527L210.526291,-34.817371"/>
    <path transform="matrix(1,0,0,-1,49.499863,-328.500122)" style="stroke:#0000ff;stroke-width:0.05mm;fill:none" d="M201.852692,-30.713789L209.796188,-12.177183"/>
    <path transform="matrix(1,0,0,-1,49.499863,-328.500122)" style="stroke:#0000ff;stroke-width:0.05mm;fill:none" d="M214.847427,-14.454135L186.248734,-74.93998"/>
    <path transform="matrix(1,0,0,-1,49.499863,-328.500122)" style="stroke:#0000ff;stroke-width:0.05mm;fill:none" d="M162.768661,-67.815147L172.583328,-1.629437"/>
    <path transform="matrix(1,0,0,-1,49.499863,-328.500122)" style="stroke:#0000ff;stroke-width:0.05mm;fill:none" d="M167.088806,-0.917284L164.866547,-20.96217"/>
    <path transform="matrix(1,0,0,-1,49.499863,-328.500122)" style="stroke:#0000ff;stroke-width:0.05mm;fill:none" d="M174.357513,-22.370575L178.047897,-2.543413"/>
    <path transform="matrix(1,0,0,-1,49.499863,-328.500122)" style="stroke:#0000ff;stroke-width:0.05mm;fill:none" d="M183.475113,-3.657971L173.93869,-46.138969"/>
    <path transform="matrix(1,0,0,-1,49.499863,-328.500122)" style="stroke:#0000ff;stroke-width:0.05mm;fill:none" d="M158.369919,-43.828838L161.571823,-0.407908"/>
    <path transform="matrix(1,0,0,-1,49.499863,-328.500122)" style="stroke:#0000ff;stroke-width:0.05mm;fill:none" d="M156.039856,-0.102023L155.297745,-20.255655"/>
    <path transform="matrix(1,0,0,-1,49.499863,-328.500122)" style="stroke:#0000ff;stroke-width:0.05mm;fill:none" d="M145.702957,-20.256157L144.960876,-0.102023"/>
    <path transform="matrix(1,0,0,-1,49.499863,-328.500122)" style="stroke:#0000ff;stroke-width:0.05mm;fill:none" d="M150.500351,0L150.500351,-135.480698"/>
    <path transform="matrix(1,0,0,-1,49.499863,-328.500122)" style="stroke:#0000ff;stroke-width:0.05mm;fill:none" d="M178.331085,-139.015793L289.544281,-92.935318"/>
    <path transform="matrix(1,0,0,-1,49.499863,-328.500122)" style="stroke:#0000ff;stroke-width:0.05mm;fill:none" d="M282.348999,-77.955833L264.686035,-87.680435"/>
    <path transform="matrix(1,0,0,-1,49.499863,-328.500122)" style="stroke:#0000ff;stroke-width:0.05mm;fill:none" d="M259.753326,-79.448135L276.65329,-68.450066"/>
    <path transform="matrix(1,0,0,-1,49.499863,-328.500122)" style="stroke:#0000ff;stroke-width:0.05mm;fill:none" d="M279.588593,-73.150497L222.216064,-107.549057"/>
    <path transform="matrix(1,0,0,-1,49.499863,-328.500122)" style="stroke:#0000ff;stroke-width:0.05mm;fill:none" d="M206.650177,-88.576073L251.570023,-38.999107"/>
    <path transform="matrix(1,0,0,-1,49.499863,-328.500122)" style="stroke:#0000ff;stroke-width:0.05mm;fill:none" d="M247.397079,-35.353439L234.416428,-50.785213"/>
    <path transform="matrix(1,0,0,-1,49.499863,-328.500122)" style="stroke:#0000ff;stroke-width:0.05mm;fill:none" d="M241.525711,-57.230698L255.606033,-42.795959"/>
    <path transform="matrix(1,0,0,-1,49.499863,-328.500122)" style="stroke:#0000ff;stroke-width:0.05mm;fill:none" d="M259.499603,-46.738834L227.976608,-76.760651"/>
    <path transform="matrix(1,0,0,-1,49.499863,-328.500122)" style="stroke:#0000ff;stroke-width:0.05mm;fill:none" d="M216.314636,-66.187592L243.092789,-31.863878"/>
    <path transform="matrix(1,0,0,-1,49.499863,-328.500122)" style="stroke:#0000ff;stroke-width:0.05mm;fill:none" d="M238.662994,-28.535156L226.852417,-44.880344"/>
    <path transform="matrix(1,0,0,-1,49.499863,-328.500122)" style="stroke:#0000ff;stroke-width:0.05mm;fill:none" d="M218.874588,-39.548092L229.451157,-22.378063"/>
    <path transform="matrix(1,0,0,-1,49.499863,-328.500122)" style="stroke:#0000ff;stroke-width:0.05mm;fill:none" d="M234.113739,-25.371798L175.604156,-112.965027"/>
    <path transform="matrix(1,0,0,-1,49.499863,-328.500122)" style="stroke:#0000ff;stroke-width:0.05mm;fill:none" d="M197.072281,-112.314682L266.838501,-55.041088"/>
    <path transform="matrix(1,0,0,-1,49.499863,-328.500122)" style="stroke:#0000ff;stroke-width:0.05mm;fill:none" d="M263.245453,-50.822384L248.141678,-64.181885"/>
    <path transform="matrix(1,0,0,-1,49.499863,-328.500122)" style="stroke:#0000ff;stroke-width:0.05mm;fill:none" d="M254.228561,-71.601089L270.273895,-59.389225"/>
    <path transform="matrix(1,0,0,-1,49.499863,-328.500122)" style="stroke:#0000ff;stroke-width:0.05mm;fill:none" d="M273.546936,-63.860924L237.961365,-88.930962"/>
    <path transform="matrix(1,0,0,-1,49.499863,-328.500122)" style="stroke:#0000ff;stroke-width:0.05mm;fill:none" d="M246.052887,-102.435081L284.930725,-82.859512"/>
    <path transform="matrix(1,0,0,-1,49.499863,-328.500122)" style="stroke:#0000ff;stroke-width:0.05mm;fill:none" d="M287.330261,-87.854958L268.999969,-96.253441"/>
    <path transform="matrix(1,0,0,-1,49.499863,-328.500122)" style="stroke:#0000ff;stroke-width:0.05mm;fill:none" d="M272.671783,-105.120659L291.569977,-98.093773"/>
    <path transform="matrix(1,0,0,-1,49.499863,-328.500122)" style="stroke:#0000ff;stroke-width:0.05mm;fill:none" d="M293.404419,-103.323341L252.075989,-116.98069"/>
    <path transform="matrix(1,0,0,-1,49.499863,-328.500122)" style="stroke:#0000ff;stroke-width:0.05mm;fill:none" d="M255.900284,-132.252914L298.784729,-124.809441"/>
    <path transform="matrix(1,0,0,-1,49.499863,-328.500122)" style="stroke:#0000ff;stroke-width:0.05mm;fill:none" d="M297.737213,-119.367203L278.012878,-123.544235"/>
    <path transform="matrix(1,0,0,-1,49.499863,-328.500122)" style="stroke:#0000ff;stroke-width:0.05mm;fill:none" d="M275.681488,-114.234024L295.045227,-108.61689"/>
    <path transform="matrix(1,0,0,-1,49.499863,-328.500122)" style="stroke:#0000ff;stroke-width:0.05mm;fill:none" d="M296.490143,-113.96727L231.605804,-130.225037"/>
    <path transform="matrix(1,0,0,-1,49.499863,-328.500122)" style="stroke:#0000ff;stroke-width:0.05mm;fill:none" d="M234.010834,-154.651169L300.819153,-157.934265"/>
    <path transform="matrix(1,0,0,-1,49.499863,-328.500122)" style="stroke:#0000ff;stroke-width:0.05mm;fill:none" d="M300.445496,-163.463806L280.358307,-161.733444"/>
    <path transform="matrix(1,0,0,-1,49.499863,-328.500122)" style="stroke:#0000ff;stroke-width:0.05mm;fill:none" d="M280.828888,-152.147232L300.989105,-152.394714"/>
</svg>
