<?xml version="1.0" encoding="UTF-8" standalone="no"?>
<svg
   width="16"
   height="16"
   fill="currentColor"
   class="bi bi-filetype-svg"
   viewBox="0 0 16 16"
   version="1.1"
   id="svg1"
   sodipodi:docname="filetype-ged.svg"
   inkscape:version="1.3.1 (91b66b0, 2023-11-16)"
   xmlns:inkscape="http://www.inkscape.org/namespaces/inkscape"
   xmlns:sodipodi="http://sodipodi.sourceforge.net/DTD/sodipodi-0.dtd"
   xmlns="http://www.w3.org/2000/svg"
   xmlns:svg="http://www.w3.org/2000/svg">
  <defs
     id="defs1" />
  <sodipodi:namedview
     id="namedview1"
     pagecolor="#ffffff"
     bordercolor="#000000"
     borderopacity="0.25"
     inkscape:showpageshadow="2"
     inkscape:pageopacity="0.0"
     inkscape:pagecheckerboard="0"
     inkscape:deskcolor="#d1d1d1"
     inkscape:zoom="49"
     inkscape:cx="9.3469388"
     inkscape:cy="8"
     inkscape:window-width="2544"
     inkscape:window-height="1371"
     inkscape:window-x="8"
     inkscape:window-y="33"
     inkscape:window-maximized="0"
     inkscape:current-layer="svg1" />
  <path
     id="path5"
     style="display:inline;stroke-width:0.966151"
     inkscape:transform-center-x="17.80341"
     inkscape:transform-center-y="-6.4002615"
     d="m 3.0399154,12.761639 q 0.1104666,0.219633 0.1356607,0.473946 H 2.4236284 A 0.77520386,0.77064374 0 0 0 2.3306039,12.995722 0.67830338,0.67431328 0 0 0 2.1658731,12.812694 0.67830338,0.67431328 0 0 0 1.9362189,12.691318 0.96900483,0.96330468 0 0 0 1.6455175,12.648932 q -0.4137651,0 -0.6434192,0.290918 -0.2277161,0.288992 -0.2277161,0.818809 v 0.478763 q 0,0.339083 0.0939935,0.593395 a 0.87210435,0.86697421 0 0 0 0.2955464,0.397845 0.8430342,0.83807507 0 0 0 0.5019445,0.140643 0.96900483,0.96330468 0 0 0 0.4428352,-0.09344 0.64923323,0.64541414 0 0 0 0.2645383,-0.253349 q 0.08721,-0.157982 0.08721,-0.350643 v -0.24468 H 1.6629596 v -0.56835 h 1.5271516 v 0.768717 q 0,0.279358 -0.093024,0.529818 a 1.2597063,1.2522961 0 0 1 -0.2839184,0.44023 1.3566068,1.3486266 0 0 1 -0.4796574,0.302477 Q 2.0466855,16.007012 1.6571455,16.007012 A 1.9380097,1.9266094 0 0 1 0.92845396,15.879856 1.405057,1.3967918 0 0 1 0.41100538,15.51669 1.5504077,1.5412875 0 0 1 0.10189284,14.957973 2.4225121,2.4082617 0 0 1 1.4733241e-4,14.240311 v -0.488395 q 0,-0.520185 0.19283196759,-0.914176 0.19573897,-0.391102 0.56492981,-0.609772 0.37112879,-0.219633 0.89729839,-0.219633 0.3459348,0 0.6153181,0.09633 0.2732594,0.09633 0.4651223,0.264909 0.193801,0.169541 0.3042675,0.392065 m 3.9025086,3.245696 v -3.999 h 1.459 q 0.609,0 1.005,0.235 0.396,0.233 0.589,0.68 0.196,0.445 0.196,1.074 0,0.634 -0.196,1.084 -0.197,0.451 -0.595,0.689 -0.396,0.237 -0.999,0.237 z m 1.354,-3.354 h -0.564 v 2.707 h 0.563 q 0.277,0 0.483,-0.082 a 0.8,0.8 0 0 0 0.334,-0.252 q 0.132,-0.17 0.196,-0.422 a 2.3,2.3 0 0 0 0.068,-0.592 q 0,-0.45 -0.118,-0.753 a 0.9,0.9 0 0 0 -0.354,-0.454 q -0.237,-0.152 -0.61,-0.152 z m -1.9426564,2.707 h -1.79 v -1.073 h 1.685 v -0.606 h -1.685 v -1.025 h 1.79 v -0.648 h -2.575 v 3.999 h 2.575 z M 14,4.5 V 14 a 2,2 0 0 1 -2,2 v -1 a 1,1 0 0 0 1,-1 V 4.5 H 11 A 1.5,1.5 0 0 1 9.5,3 V 1 H 4 A 1,1 0 0 0 3,2 v 9 H 2 V 2 A 2,2 0 0 1 4,0 h 5.5 z" />
</svg>
